<?xml version="1.0" encoding="utf-8"?>
<!-- Generator: Adobe Illustrator 27.8.1, SVG Export Plug-In . SVG Version: 6.00 Build 0)  -->
<svg version="1.1" id="Layer_1" xmlns="http://www.w3.org/2000/svg" xmlns:xlink="http://www.w3.org/1999/xlink" x="0px" y="0px"
	 viewBox="0 0 512 512" style="enable-background:new 0 0 512 512;" xml:space="preserve">
<style type="text/css">
	.st0{font-family:'ArialMT';}
	.st1{font-size:12px;}
</style>
<g>
	<g>
		<g>
			<path d="M256,84.3c34.6,0,67.8,10.1,95.8,29.4l0,0L166.5,234.3v59.4l223.1-145.1l41.6-27.3c-5.9-7.7-12.2-14.7-18.9-21.7
				c-5.2-5.2-10.5-10.1-16.1-14.7l0,0C356.7,52.5,307.8,35,256,35C146.5,35,55.3,115.1,37.8,220l47.9,14.7
				C96.5,149.7,168.6,84.3,256,84.3z"/>
			<path d="M464.8,182.9L464.8,182.9c-3.5-9.8-7.7-19.6-12.6-28.7l-42,27.3l0,0l-73.4,48.3v59.4l88.8-58.1l0,0
				c1,8,1.7,16.1,1.7,24.5c0,20.3-3.8,39.9-10.1,58.1c-0.7,1.7-1.4,3.5-2.1,5.2c-0.7,1.7-1.4,3.5-2.1,5.2c-0.3,1-0.7,2.1-1.4,3.1
				c-1,2.4-2.4,5.2-3.8,7.7c-0.7,1.7-1.7,3.1-2.8,4.9l48.6,15c0.3-0.3,0.3-0.7,0.7-1c0.7-1.4,1-2.4,1.7-3.8c1.4-3.1,2.8-6.3,4.2-9.4
				c0.3-0.7,0.7-1.4,0.7-1.7c10.5-25.5,16.1-53.5,16.1-82.9C477,230.8,472.8,206.3,464.8,182.9z"/>
			<path d="M378.4,375.6L378.4,375.6c-1.7,1.7-3.5,3.5-5.2,5.2c-0.3,0.3-1,1-1.4,1.4c-3.5,3.1-7.3,6.6-11.2,9.4
				c-0.3,0.3-0.7,0.3-1,0.7c-2.1,1.4-4.2,3.1-6.3,4.5c-1,0.7-1.7,1.4-2.8,1.7c-2.8,1.7-5.9,3.8-8.7,5.6c-1.7,1-3.8,2.1-5.6,3.1
				c-1.4,0.7-2.4,1.4-3.8,2.1c-3.5,1.7-6.6,3.1-10.1,4.5c-0.3,0-0.7,0.3-1,0.3c-11.9,4.9-24.1,8.4-36.7,10.5l0,0
				c-9.1,1.4-18.5,2.4-28.3,2.4c-86.7,0-158.8-65-170-149L35,262.6C38.5,381.5,136.4,477,256,477c40.2,0,78-10.8,110.5-29.7l0,0
				c16.4-9.4,31.8-21,45.8-35c6.6-6.6,12.6-13.3,18.2-20.6L378.4,375.6L378.4,375.6z"/>
			<polygon points="326.3,295.9 326.3,236.4 291,259.5 291,318.6 			"/>
		</g>
	</g>
</g>
<text class="st0 st1"> </text>
<text class="st0 st1"> </text>
<text class="st0 st1"> </text>
</svg>
